<svg width="13" height="4" viewBox="0 0 13 4" fill="none" xmlns="http://www.w3.org/2000/svg">
<path d="M6.75 1.625C6.75 1.90114 6.52614 2.125 6.25 2.125C5.97386 2.125 5.75 1.90114 5.75 1.625C5.75 1.34886 5.97386 1.125 6.25 1.125C6.52614 1.125 6.75 1.34886 6.75 1.625Z" stroke="#3629B7" stroke-opacity="0.87" stroke-width="2" stroke-linecap="round" stroke-linejoin="round"/>
<path d="M11.5 1.625C11.5 1.90114 11.2761 2.125 11 2.125C10.7239 2.125 10.5 1.90114 10.5 1.625C10.5 1.34886 10.7239 1.125 11 1.125C11.2761 1.125 11.5 1.34886 11.5 1.625Z" stroke="#3629B7" stroke-opacity="0.87" stroke-width="2" stroke-linecap="round" stroke-linejoin="round"/>
<path d="M2 1.625C2 1.90114 1.77614 2.125 1.5 2.125C1.22386 2.125 1 1.90114 1 1.625C1 1.34886 1.22386 1.125 1.5 1.125C1.77614 1.125 2 1.34886 2 1.625Z" stroke="#3629B7" stroke-opacity="0.87" stroke-width="2" stroke-linecap="round" stroke-linejoin="round"/>
</svg>
